<svg xmlns="http://www.w3.org/2000/svg" viewBox="0 0 512 512" width="512" height="512">
  <rect width="512" height="512" rx="48" fill="#F4F2ED"/>
  <g transform="translate(148, 158) scale(2.4)">
    <rect x="20" y="20" width="72" height="72" rx="5" fill="#E8B620"/>
    <rect x="47" y="40" width="20" height="52" fill="#F4F2ED"/>
    <ellipse cx="57" cy="40" rx="10" ry="7.5" fill="#F4F2ED"/>
    <rect x="10" y="10" width="72" height="72" rx="5" fill="#3B6BA5"/>
    <rect x="37" y="30" width="20" height="52" fill="#F4F2ED"/>
    <ellipse cx="47" cy="30" rx="10" ry="7.5" fill="#F4F2ED"/>
    <rect x="0" y="0" width="72" height="72" rx="5" fill="#F4F2ED"/>
    <rect x="0" y="19" width="72" height="7" fill="#F4F2ED"/>
    <rect x="0" y="0" width="72" height="26" rx="5" fill="#F4F2ED"/>
    <rect x="0" y="12" width="72" height="14" fill="#F4F2ED"/>
    <rect x="0" y="19" width="72" height="7" fill="#F4F2ED"/>
    <rect x="27" y="30" width="18" height="42" rx="0.5" fill="#F4F2ED"/>
    <ellipse cx="36" cy="31.5" rx="9" ry="6" fill="#F4F2ED"/>
  </g>
</svg>